<svg xmlns="http://www.w3.org/2000/svg" viewBox="0 0 880 193"><defs><style>.cls-1{fill:#1c1917;}.cls-2{fill:none;}</style></defs><title>Asset 3</title><g id="Layer_2" data-name="Layer 2"><g id="Layer_1-2" data-name="Layer 1"><path class="cls-1" d="M94.49,38.09c21.87,0,39.41,10.22,47.61,30.75a1.62,1.62,0,0,1-1.52,2.2H128.17a2.47,2.47,0,0,1-2.23-1.45c-5.87-12.68-16.71-18.46-31.45-18.46-21.9,0-38.24,17.27-38.24,45.14,0,27.71,16.34,45,38.24,45,14.66,0,25.46-7,31.35-19.53a2.84,2.84,0,0,1,2.55-1.65h12.2a1.61,1.61,0,0,1,1.51,2.19c-8.2,20.46-25.74,31.86-47.61,31.86-29.25,0-52.19-23.79-52.19-57.85S65.24,38.09,94.49,38.09Z"/><path class="cls-1" d="M234.41,153.23H224a1.58,1.58,0,0,1-1.58-1.58V141.08c-5.25,8.55-15.3,13.35-26.25,13.35-18.89,0-33.74-11.7-33.74-35.25V72.65A1.61,1.61,0,0,1,164,71h10.28a1.62,1.62,0,0,1,1.62,1.62v44.72c0,16.65,9.15,25.2,22.94,25.2,14.1,0,23.55-8.7,23.55-26.4V72.64A1.6,1.6,0,0,1,224,71h10.46a1.59,1.59,0,0,1,1.59,1.59v79A1.64,1.64,0,0,1,234.41,153.23Z"/><path class="cls-1" d="M294.08,69.69c19.6,0,32.7,9.7,37.41,25.77a1.56,1.56,0,0,1-1.51,2H318.73a1.94,1.94,0,0,1-1.83-1.34c-3.19-9.13-11.23-14.86-22.82-14.86-15,0-26.1,10.65-26.1,30.74,0,20.4,11.1,31.05,26.1,31.05,11.6,0,19.51-5.34,22.81-14.83a2,2,0,0,1,1.86-1.37h11.19a1.56,1.56,0,0,1,1.51,2c-4.74,15.27-17.82,25.75-37.37,25.75-23.4,0-40-16.5-40-42.6C254,86.19,270.68,69.69,294.08,69.69Z"/><path class="cls-1" d="M385.1,69.69c19.66,0,32.77,9.76,37.45,25.9a1.46,1.46,0,0,1-1.41,1.85H409.76a2,2,0,0,1-1.84-1.35c-3.2-9.12-11.23-14.85-22.82-14.85C370.1,81.24,359,91.89,359,112,359,132.38,370.1,143,385.1,143c11.65,0,19.57-5.38,22.85-14.94a1.82,1.82,0,0,1,1.71-1.26H421a1.55,1.55,0,0,1,1.49,2c-4.74,15.28-17.82,25.78-37.39,25.78-23.4,0-40-16.5-40-42.6C345.06,86.19,361.7,69.69,385.1,69.69Z"/><path class="cls-1" d="M439.6,48.4A8.48,8.48,0,1,1,448.22,57,8.49,8.49,0,0,1,439.6,48.4Z"/><path class="cls-1" d="M442.72,71h10.41a1.7,1.7,0,0,1,1.7,1.7v78.89a1.6,1.6,0,0,1-1.6,1.6h-10.5a1.55,1.55,0,0,1-1.55-1.55V72.58A1.54,1.54,0,0,1,442.72,71Z"/><path class="cls-1" d="M512,69.69c15.3,0,25.8,7.8,30.6,16.35V72.47A1.43,1.43,0,0,1,544,71H554.5a1.85,1.85,0,0,1,1.85,1.86v78.65a1.68,1.68,0,0,1-1.68,1.68H544.1a1.54,1.54,0,0,1-1.54-1.55V137.93c-4.95,8.85-15.6,16.65-30.75,16.65-21.9,0-38.84-17.25-38.84-42.74C473,86.19,489.91,69.69,512,69.69Zm2.7,11.85c-15,0-27.74,10.95-27.74,30.3s12.74,30.74,27.74,30.74,27.9-11.25,27.9-30.6C542.56,92.94,529.66,81.54,514.66,81.54Z"/><path class="cls-1" d="M666.57,38.09c21.89,0,39.44,9,47.63,29.46a1.57,1.57,0,0,1-1.48,2.14H699.87a1.88,1.88,0,0,1-1.7-1.12c-5.83-12.84-16.73-17.44-31.6-17.44-21.9,0-38.25,17.27-38.25,45.14,0,27.71,16.35,45,38.25,45,14.86,0,25.75-7.23,31.59-20a1.92,1.92,0,0,1,1.74-1.14h12.83a1.57,1.57,0,0,1,1.47,2.13c-8.19,20.5-25.74,31.92-47.63,31.92-29.25,0-52.19-23.79-52.19-57.85S637.32,38.09,666.57,38.09Z"/><path class="cls-1" d="M771.08,154.58c-23.24,0-40.94-16.5-40.94-42.6,0-25.94,18.3-42.29,41.54-42.29,23.4,0,41.54,16.35,41.54,42.29C813.22,138.08,794.48,154.58,771.08,154.58Zm0-12c14.25,0,28.2-9.75,28.2-30.6,0-20.69-13.65-30.44-27.75-30.44-14.39,0-27.44,9.75-27.44,30.44C744.09,132.83,756.84,142.58,771.08,142.58Z"/><path class="cls-1" d="M820.74,146.29a8.48,8.48,0,1,1,8.62,8.62A8.49,8.49,0,0,1,820.74,146.29Z"/><rect class="cls-2" width="880" height="193"/></g></g></svg>